<mxfile host="app.diagrams.net" agent="Mozilla/5.0 (Windows NT 10.0; Win64; x64) AppleWebKit/537.36 (KHTML, like Gecko) Chrome/135.0.0.0 Safari/537.36" version="26.2.14">
  <diagram name="Page-1" id="b1RyjvpHBHia8XNkwInq">
    <mxGraphModel dx="996" dy="593" grid="1" gridSize="10" guides="1" tooltips="1" connect="1" arrows="1" fold="1" page="1" pageScale="1" pageWidth="850" pageHeight="1100" math="0" shadow="0">
      <root>
        <mxCell id="0" />
        <mxCell id="1" parent="0" />
        <mxCell id="6heOsep9tmJ08nUrA8cm-6" value="" style="edgeStyle=orthogonalEdgeStyle;rounded=0;orthogonalLoop=1;jettySize=auto;html=1;" edge="1" parent="1" source="6heOsep9tmJ08nUrA8cm-1" target="6heOsep9tmJ08nUrA8cm-5">
          <mxGeometry relative="1" as="geometry" />
        </mxCell>
        <mxCell id="6heOsep9tmJ08nUrA8cm-15" value="" style="edgeStyle=orthogonalEdgeStyle;rounded=0;orthogonalLoop=1;jettySize=auto;html=1;exitX=0;exitY=0.5;exitDx=0;exitDy=0;" edge="1" parent="1" source="6heOsep9tmJ08nUrA8cm-1" target="6heOsep9tmJ08nUrA8cm-14">
          <mxGeometry relative="1" as="geometry">
            <mxPoint x="335" y="70" as="sourcePoint" />
          </mxGeometry>
        </mxCell>
        <mxCell id="6heOsep9tmJ08nUrA8cm-17" value="" style="edgeStyle=orthogonalEdgeStyle;rounded=0;orthogonalLoop=1;jettySize=auto;html=1;" edge="1" parent="1" source="6heOsep9tmJ08nUrA8cm-1" target="6heOsep9tmJ08nUrA8cm-16">
          <mxGeometry relative="1" as="geometry" />
        </mxCell>
        <mxCell id="6heOsep9tmJ08nUrA8cm-1" value="Banking Ops" style="rounded=0;whiteSpace=wrap;html=1;" vertex="1" parent="1">
          <mxGeometry x="365" y="40" width="120" height="60" as="geometry" />
        </mxCell>
        <mxCell id="6heOsep9tmJ08nUrA8cm-23" value="" style="edgeStyle=orthogonalEdgeStyle;rounded=0;orthogonalLoop=1;jettySize=auto;html=1;" edge="1" parent="1" source="6heOsep9tmJ08nUrA8cm-2" target="6heOsep9tmJ08nUrA8cm-22">
          <mxGeometry relative="1" as="geometry" />
        </mxCell>
        <mxCell id="6heOsep9tmJ08nUrA8cm-2" value="Withdraw" style="whiteSpace=wrap;html=1;rounded=0;" vertex="1" parent="1">
          <mxGeometry x="365" y="360" width="120" height="60" as="geometry" />
        </mxCell>
        <mxCell id="6heOsep9tmJ08nUrA8cm-7" style="edgeStyle=orthogonalEdgeStyle;rounded=0;orthogonalLoop=1;jettySize=auto;html=1;entryX=0.5;entryY=0;entryDx=0;entryDy=0;" edge="1" parent="1" source="6heOsep9tmJ08nUrA8cm-8" target="6heOsep9tmJ08nUrA8cm-2">
          <mxGeometry relative="1" as="geometry" />
        </mxCell>
        <mxCell id="6heOsep9tmJ08nUrA8cm-11" value="" style="edgeStyle=orthogonalEdgeStyle;rounded=0;orthogonalLoop=1;jettySize=auto;html=1;" edge="1" parent="1" source="6heOsep9tmJ08nUrA8cm-5">
          <mxGeometry relative="1" as="geometry">
            <mxPoint x="630" y="360" as="targetPoint" />
          </mxGeometry>
        </mxCell>
        <mxCell id="6heOsep9tmJ08nUrA8cm-5" value="If balance&amp;gt;0" style="rhombus;whiteSpace=wrap;html=1;rounded=0;" vertex="1" parent="1">
          <mxGeometry x="385" y="190" width="80" height="80" as="geometry" />
        </mxCell>
        <mxCell id="6heOsep9tmJ08nUrA8cm-9" value="" style="edgeStyle=orthogonalEdgeStyle;rounded=0;orthogonalLoop=1;jettySize=auto;html=1;entryX=0.5;entryY=0;entryDx=0;entryDy=0;" edge="1" parent="1" source="6heOsep9tmJ08nUrA8cm-5" target="6heOsep9tmJ08nUrA8cm-8">
          <mxGeometry relative="1" as="geometry">
            <mxPoint x="425" y="270" as="sourcePoint" />
            <mxPoint x="425" y="360" as="targetPoint" />
          </mxGeometry>
        </mxCell>
        <mxCell id="6heOsep9tmJ08nUrA8cm-8" value="True" style="text;html=1;align=center;verticalAlign=middle;whiteSpace=wrap;rounded=0;" vertex="1" parent="1">
          <mxGeometry x="395" y="290" width="60" height="30" as="geometry" />
        </mxCell>
        <mxCell id="6heOsep9tmJ08nUrA8cm-12" value="Pass" style="text;html=1;align=center;verticalAlign=middle;whiteSpace=wrap;rounded=0;" vertex="1" parent="1">
          <mxGeometry x="600" y="360" width="60" height="30" as="geometry" />
        </mxCell>
        <mxCell id="6heOsep9tmJ08nUrA8cm-19" value="" style="edgeStyle=orthogonalEdgeStyle;rounded=0;orthogonalLoop=1;jettySize=auto;html=1;" edge="1" parent="1" source="6heOsep9tmJ08nUrA8cm-14" target="6heOsep9tmJ08nUrA8cm-18">
          <mxGeometry relative="1" as="geometry" />
        </mxCell>
        <mxCell id="6heOsep9tmJ08nUrA8cm-14" value="Deposite" style="whiteSpace=wrap;html=1;rounded=0;" vertex="1" parent="1">
          <mxGeometry x="20" y="360" width="120" height="60" as="geometry" />
        </mxCell>
        <mxCell id="6heOsep9tmJ08nUrA8cm-37" value="" style="edgeStyle=orthogonalEdgeStyle;rounded=0;orthogonalLoop=1;jettySize=auto;html=1;" edge="1" parent="1" source="6heOsep9tmJ08nUrA8cm-16" target="6heOsep9tmJ08nUrA8cm-36">
          <mxGeometry relative="1" as="geometry" />
        </mxCell>
        <mxCell id="6heOsep9tmJ08nUrA8cm-16" value="Account Statement last 5 transactions" style="whiteSpace=wrap;html=1;rounded=0;" vertex="1" parent="1">
          <mxGeometry x="770" y="360" width="120" height="60" as="geometry" />
        </mxCell>
        <mxCell id="6heOsep9tmJ08nUrA8cm-21" value="" style="edgeStyle=orthogonalEdgeStyle;rounded=0;orthogonalLoop=1;jettySize=auto;html=1;" edge="1" parent="1" source="6heOsep9tmJ08nUrA8cm-18" target="6heOsep9tmJ08nUrA8cm-20">
          <mxGeometry relative="1" as="geometry" />
        </mxCell>
        <mxCell id="6heOsep9tmJ08nUrA8cm-18" value="add amount" style="whiteSpace=wrap;html=1;rounded=0;" vertex="1" parent="1">
          <mxGeometry x="20" y="500" width="120" height="60" as="geometry" />
        </mxCell>
        <mxCell id="6heOsep9tmJ08nUrA8cm-20" value="Deposite sucessfull" style="ellipse;whiteSpace=wrap;html=1;rounded=0;" vertex="1" parent="1">
          <mxGeometry x="40" y="630" width="80" height="80" as="geometry" />
        </mxCell>
        <mxCell id="6heOsep9tmJ08nUrA8cm-25" value="" style="edgeStyle=orthogonalEdgeStyle;rounded=0;orthogonalLoop=1;jettySize=auto;html=1;" edge="1" parent="1" source="6heOsep9tmJ08nUrA8cm-22" target="6heOsep9tmJ08nUrA8cm-24">
          <mxGeometry relative="1" as="geometry" />
        </mxCell>
        <mxCell id="6heOsep9tmJ08nUrA8cm-22" value="amount" style="whiteSpace=wrap;html=1;rounded=0;" vertex="1" parent="1">
          <mxGeometry x="365" y="500" width="120" height="60" as="geometry" />
        </mxCell>
        <mxCell id="6heOsep9tmJ08nUrA8cm-27" value="" style="edgeStyle=orthogonalEdgeStyle;rounded=0;orthogonalLoop=1;jettySize=auto;html=1;" edge="1" parent="1" source="6heOsep9tmJ08nUrA8cm-30" target="6heOsep9tmJ08nUrA8cm-26">
          <mxGeometry relative="1" as="geometry" />
        </mxCell>
        <mxCell id="6heOsep9tmJ08nUrA8cm-29" value="" style="edgeStyle=orthogonalEdgeStyle;rounded=0;orthogonalLoop=1;jettySize=auto;html=1;" edge="1" parent="1" source="6heOsep9tmJ08nUrA8cm-34" target="6heOsep9tmJ08nUrA8cm-28">
          <mxGeometry relative="1" as="geometry" />
        </mxCell>
        <mxCell id="6heOsep9tmJ08nUrA8cm-24" value="OTP Validation" style="rhombus;whiteSpace=wrap;html=1;rounded=0;" vertex="1" parent="1">
          <mxGeometry x="385" y="630" width="80" height="80" as="geometry" />
        </mxCell>
        <mxCell id="6heOsep9tmJ08nUrA8cm-26" value="Amount withdraw" style="ellipse;whiteSpace=wrap;html=1;rounded=0;" vertex="1" parent="1">
          <mxGeometry x="385" y="830" width="80" height="80" as="geometry" />
        </mxCell>
        <mxCell id="6heOsep9tmJ08nUrA8cm-28" value="Account Block for 2 hours" style="ellipse;whiteSpace=wrap;html=1;rounded=0;" vertex="1" parent="1">
          <mxGeometry x="580" y="830" width="80" height="80" as="geometry" />
        </mxCell>
        <mxCell id="6heOsep9tmJ08nUrA8cm-31" value="" style="edgeStyle=orthogonalEdgeStyle;rounded=0;orthogonalLoop=1;jettySize=auto;html=1;" edge="1" parent="1" source="6heOsep9tmJ08nUrA8cm-24" target="6heOsep9tmJ08nUrA8cm-30">
          <mxGeometry relative="1" as="geometry">
            <mxPoint x="425" y="710" as="sourcePoint" />
            <mxPoint x="425" y="830" as="targetPoint" />
          </mxGeometry>
        </mxCell>
        <mxCell id="6heOsep9tmJ08nUrA8cm-30" value="Success" style="text;html=1;align=center;verticalAlign=middle;whiteSpace=wrap;rounded=0;" vertex="1" parent="1">
          <mxGeometry x="395" y="760" width="60" height="30" as="geometry" />
        </mxCell>
        <mxCell id="6heOsep9tmJ08nUrA8cm-35" value="" style="edgeStyle=orthogonalEdgeStyle;rounded=0;orthogonalLoop=1;jettySize=auto;html=1;" edge="1" parent="1" source="6heOsep9tmJ08nUrA8cm-24" target="6heOsep9tmJ08nUrA8cm-34">
          <mxGeometry relative="1" as="geometry">
            <mxPoint x="465" y="670" as="sourcePoint" />
            <mxPoint x="620" y="830" as="targetPoint" />
          </mxGeometry>
        </mxCell>
        <mxCell id="6heOsep9tmJ08nUrA8cm-34" value="Fail" style="text;html=1;align=center;verticalAlign=middle;whiteSpace=wrap;rounded=0;" vertex="1" parent="1">
          <mxGeometry x="590" y="760" width="60" height="30" as="geometry" />
        </mxCell>
        <mxCell id="6heOsep9tmJ08nUrA8cm-36" value="Display Transactions" style="ellipse;whiteSpace=wrap;html=1;rounded=0;" vertex="1" parent="1">
          <mxGeometry x="790" y="630" width="80" height="80" as="geometry" />
        </mxCell>
      </root>
    </mxGraphModel>
  </diagram>
</mxfile>
